<svg xmlns="http://www.w3.org/2000/svg" viewBox="0 0 100 100" width="64" height="64">
  <circle cx="50" cy="50" r="48" fill="none" stroke="#E63946" stroke-width="4"/>
  <path d="M50 2 A48 48 0 0 1 98 50 L78 50 A28 28 0 0 0 50 22 Z" fill="#E63946"/>
  <path d="M98 50 A48 48 0 0 1 50 98 L50 78 A28 28 0 0 0 78 50 Z" fill="#E63946"/>
  <path d="M50 98 A48 48 0 0 1 2 50 L22 50 A28 28 0 0 0 50 78 Z" fill="#E63946"/>
  <path d="M2 50 A48 48 0 0 1 50 2 L50 22 A28 28 0 0 0 22 50 Z" fill="#E63946"/>
  <circle cx="50" cy="50" r="18" fill="white"/>
  <text x="50" y="55" text-anchor="middle" font-size="11" font-weight="bold" fill="#E63946" font-family="sans-serif">RSG</text>
</svg>
